<?xml version="1.0" encoding="utf-8"?>
<!-- Generator: Adobe Illustrator 24.0.0, SVG Export Plug-In . SVG Version: 6.00 Build 0)  -->
<svg version="1.1" id="Capa_1" xmlns="http://www.w3.org/2000/svg" xmlns:xlink="http://www.w3.org/1999/xlink" x="0px" y="0px"
	 viewBox="0 0 800 800" style="enable-background:new 0 0 800 800;" xml:space="preserve">
<style type="text/css">
	.st0{fill:#FFFFFF;}
</style>
<path class="st0" d="M741.7,184.4h-6.1c-7.1-13-20.8-21.9-36.6-21.9H586.4v-18.9c0-24.2-19.7-43.9-43.9-43.9h-285
	c-24.2,0-43.9,19.7-43.9,43.9v18.9H101.1c-15.8,0-29.6,8.9-36.6,21.9h-6.1C26.1,184.4,0,210.5,0,242.6V642
	c0,32.1,26.1,58.3,58.3,58.3h683.4c32.1,0,58.3-26.1,58.3-58.3V242.6C800,210.5,773.9,184.4,741.7,184.4z M239.2,143.6
	c0-10.1,8.2-18.3,18.3-18.3h285c10.1,0,18.3,8.2,18.3,18.3v18.9H239.2V143.6z M85,204.1c0-8.9,7.2-16.1,16.1-16.1h597.9
	c8.9,0,16.1,7.2,16.1,16.1V508c0,42.2-34.4,76.6-76.6,76.6H487.3l8.1-46.4H304.6l8.1,46.4H161.6c-42.2,0-76.6-34.4-76.6-76.6
	L85,204.1L85,204.1z M465,563.7l-9.8,56.3H344.8l-9.8-56.3H465z M774.4,642c0,18-14.7,32.7-32.7,32.7H58.3
	c-18,0-32.7-14.7-32.7-32.7V242.6c0-18,14.7-32.7,32.7-32.7h1.1v298c0,56.3,45.8,102.2,102.2,102.2h155.5l6.2,35.5h153.5l6.2-35.5
	h155.5c56.3,0,102.2-45.8,102.2-102.2v-298h1.1c18,0,32.7,14.7,32.7,32.7L774.4,642L774.4,642z"/>
</svg>
