<?xml version="1.0" encoding="utf-8"?>
<!-- Generator: Adobe Illustrator 24.0.0, SVG Export Plug-In . SVG Version: 6.00 Build 0)  -->
<svg version="1.1" id="Layer_1" xmlns="http://www.w3.org/2000/svg" xmlns:xlink="http://www.w3.org/1999/xlink" x="0px" y="0px"
	 viewBox="0 0 32 32" style="enable-background:new 0 0 32 32;" xml:space="preserve">
<style type="text/css">
	.st0{fill-rule:evenodd;clip-rule:evenodd;fill:#FFFFFF;}
	.st1{fill:#FFFFFF;}
</style>
<path class="st0" d="M16,5.8c5.5,0,9.9,4.4,9.9,9.9s-4.4,9.9-9.9,9.9s-9.9-4.4-9.9-9.9S10.5,5.8,16,5.8z M16,4.4
	c6.3,0,11.3,5.1,11.3,11.3S22.3,27.1,16,27.1S4.7,22,4.7,15.7S9.7,4.4,16,4.4z"/>
<path class="st0" d="M10.7,13.5c0.3,0.2,0.8,0.1,1-0.3c0.9-1.5,2.5-2.5,4.3-2.5c1.8,0,3.4,1,4.3,2.5c0.2,0.3,0.6,0.5,1,0.3
	c0.3-0.2,0.4-0.6,0.3-1c-1.1-2-3.2-3.2-5.5-3.2c-2.3,0-4.4,1.2-5.5,3.2C10.3,12.9,10.4,13.3,10.7,13.5z"/>
<path class="st1" d="M14.6,17.8c0-1.2-0.6-2.1-1.4-2.1c-0.8,0-1.4,1-1.4,2.1s0.6,2.1,1.4,2.1C13.9,20,14.6,19,14.6,17.8z M20.2,17.8
	c0-1.2-0.6-2.1-1.4-2.1c-0.8,0-1.4,1-1.4,2.1s0.6,2.1,1.4,2.1C19.6,20,20.2,19,20.2,17.8z"/>
</svg>
